<?xml version="1.0" encoding="utf-8"?>
<svg version="1.1" xmlns="http://www.w3.org/2000/svg" xmlns:xlink="http://www.w3.org/1999/xlink" x="0px" y="0px"
	 width="165.87px" height="38.01px" viewBox="0 0 165.87 38.01" enable-background="new 0 0 165.87 38.01" xml:space="preserve">
<path fill="#FFFFFF" d="M28.356,1.149c-5.08,0-9.213,4.133-9.213,9.214c0,5.08,4.133,9.216,9.213,9.216s9.213-4.136,9.213-9.216
	C37.569,5.282,33.437,1.149,28.356,1.149 M28.356,17.764c-4.081,0-7.402-3.322-7.402-7.401c0-4.078,3.321-7.399,7.402-7.399
	s7.402,3.321,7.402,7.399C35.758,14.442,32.438,17.764,28.356,17.764"/>
<path fill="#FFFFFF" d="M107.803,10.48c-0.496-0.26-3.5-1.809-3.935-2.033c-1.577-0.804-2.136-1.518-2.136-2.726
	c0-1.676,1.375-2.759,3.511-2.759c1.254,0,2.466,0.551,3.176,0.951c0.13,0.071,0.282,0.11,0.44,0.11c0.5,0,0.906-0.406,0.906-0.905
	c0-0.336-0.183-0.628-0.455-0.785c-0.895-0.499-2.422-1.185-4.067-1.185c-3.136,0-5.326,1.882-5.326,4.573
	c0,2.418,1.589,3.559,3.146,4.353c0.435,0.222,3.476,1.79,3.933,2.031c1.201,0.629,1.864,1.572,1.864,2.657
	c0,1.456-1.231,3.002-3.514,3.002c-2.219,0-3.942-1.488-4.42-1.946l-0.14-0.136l-1.342,1.222l0.157,0.156
	c0.596,0.592,2.772,2.519,5.744,2.519c3.332,0,5.325-2.45,5.325-4.817C110.671,12.996,109.626,11.434,107.803,10.48"/>
<path fill="#FFFFFF" d="M9.466,2.964c1.978,0,3.838,0.769,5.234,2.165c0.331,0.33,0.954,0.33,1.281,0
	c0.173-0.169,0.266-0.396,0.266-0.64c0-0.241-0.093-0.471-0.266-0.64l-0.109-0.114c-1.727-1.667-4.003-2.586-6.406-2.586
	c-5.08,0-9.213,4.133-9.213,9.213c0,5.081,4.133,9.217,9.213,9.217c2.682,0,5.097-1.151,6.781-2.985l-1.282-1.285
	c-1.356,1.507-3.318,2.455-5.499,2.455c-4.081,0-7.401-3.322-7.401-7.402C2.064,6.285,5.385,2.964,9.466,2.964"/>
<path fill="#FFFFFF" d="M71.926,2.964c1.977,0,3.837,0.769,5.233,2.165c0.332,0.33,0.955,0.33,1.282,0
	c0.173-0.169,0.267-0.396,0.267-0.64c0-0.241-0.094-0.471-0.267-0.64l-0.11-0.114c-1.728-1.667-4.002-2.586-6.405-2.586
	c-5.08,0-9.214,4.133-9.214,9.213c0,5.081,4.134,9.217,9.214,9.217c2.68,0,5.096-1.151,6.781-2.985l-1.283-1.285
	c-1.355,1.507-3.318,2.455-5.498,2.455c-4.081,0-7.402-3.322-7.402-7.402C64.524,6.285,67.845,2.964,71.926,2.964"/>
<path fill="#FFFFFF" d="M56.319,1.149c-0.341,0-0.608,0.219-0.755,0.503c-0.149,0.283-5.422,13.326-5.422,13.326
	S44.869,1.935,44.72,1.652c-0.148-0.284-0.415-0.503-0.755-0.503c-0.398,0-0.697,0.291-0.802,0.661
	c-0.105,0.37-3.08,16.787-3.08,16.787c-0.011,0.053-0.016,0.108-0.016,0.165c0,0.451,0.367,0.818,0.817,0.818
	c0.398,0,0.731-0.285,0.803-0.662l2.576-14.044c0,0,4.971,12.281,5.117,12.574c0.146,0.292,0.416,0.517,0.762,0.517
	c0.345,0,0.615-0.225,0.761-0.517c0.146-0.293,5.117-12.574,5.117-12.574l2.678,14.603h1.662c0,0-3.134-17.297-3.239-17.667
	C57.016,1.44,56.716,1.149,56.319,1.149"/>
<path fill="#FFFFFF" d="M89.078,1.149c-0.346-0.001-0.611,0.224-0.762,0.517c-0.148,0.292-6.824,16.777-6.824,16.777
	c-0.04,0.098-0.063,0.206-0.063,0.318c0,0.452,0.366,0.819,0.818,0.819c0.344,0,0.64-0.216,0.76-0.52l2.592-6.374h6.959l2.763,6.791
	h1.767c0,0-7.104-17.52-7.25-17.812C89.691,1.373,89.424,1.148,89.078,1.149 M86.338,10.872l2.74-6.738l2.741,6.738H86.338z"/>
<path fill="#FFFFFF" d="M124.946,2.154c0-0.501-0.408-0.906-0.908-0.906h-10.259c-0.5,0-0.905,0.405-0.905,0.906
	c0,0.5,0.405,0.905,0.905,0.905h4.301v16.418h1.66V3.059h4.298C124.538,3.059,124.946,2.654,124.946,2.154"/>
<path fill="#FFFFFF" d="M26.488,29.545v8.512h1.474v-3.923h4.37v3.385c0,0.384,0.282,0.705,0.744,0.705
	c0.449,0,0.73-0.321,0.73-0.705v-7.974c0-0.396-0.281-0.717-0.73-0.717c-0.462,0-0.744,0.32-0.744,0.717v3.152h-4.37v-3.152
	c0-0.396-0.282-0.717-0.731-0.717C26.77,28.828,26.488,29.148,26.488,29.545"/>
<path fill="#FFFFFF" d="M11.175,30.436v2.032h3.371c0.525,0,0.807,0.308,0.807,0.718s-0.282,0.719-0.807,0.719h-3.371v2.703h4.486
	v1.435h-5.255c-0.41,0-0.705-0.308-0.705-0.705v-7.632c0-0.41,0.295-0.705,0.705-0.705h4.524c0.487,0,0.781,0.308,0.781,0.718
	s-0.294,0.718-0.781,0.718H11.175z"/>
<path fill="#FFFFFF" d="M161.061,35.834c0.129,0.143,0.792,0.961,2.051,0.961c0.87,0,1.443-0.532,1.443-1.155
	c0-0.572-0.352-0.884-1.04-1.209c-0.207-0.103-1.013-0.493-1.207-0.584c-1.091-0.519-1.974-1.181-1.974-2.506
	c0-1.441,1.22-2.494,2.869-2.494c1.039,0,1.662,0.274,2.064,0.455c0.247,0.116,0.533,0.337,0.533,0.739
	c0,0.468-0.364,0.701-0.688,0.701c-0.247,0-0.521-0.129-0.624-0.182c-0.234-0.104-0.662-0.285-1.22-0.285
	c-0.974,0-1.364,0.532-1.364,1.014c0,0.468,0.247,0.805,0.844,1.09c0,0,1.104,0.533,1.506,0.715
	c1.469,0.714,1.871,1.519,1.871,2.507c0,1.519-1.299,2.623-3.182,2.623c-1.922,0-2.792-1.13-2.986-1.39L161.061,35.834z"/>
<path fill="#FFFFFF" d="M96.026,35.742c0.128,0.141,0.782,0.949,2.024,0.949c0.859,0,1.424-0.526,1.424-1.141
	c0-0.564-0.348-0.873-1.025-1.192c-0.205-0.103-1-0.487-1.191-0.577c-1.077-0.512-1.949-1.166-1.949-2.473
	c0-1.424,1.205-2.463,2.833-2.463c1.026,0,1.64,0.271,2.037,0.449c0.243,0.115,0.526,0.334,0.526,0.73
	c0,0.462-0.359,0.693-0.679,0.693c-0.245,0-0.514-0.129-0.616-0.181c-0.231-0.102-0.654-0.28-1.205-0.28
	c-0.961,0-1.346,0.524-1.346,0.998c0,0.463,0.244,0.795,0.833,1.076c0,0,1.091,0.526,1.486,0.706
	c1.448,0.704,1.847,1.499,1.847,2.474c0,1.5-1.281,2.59-3.141,2.59c-1.896,0-2.756-1.115-2.947-1.372L96.026,35.742z"/>
<path fill="#FFFFFF" d="M114.576,29.564v7.042h3.511v1.436h-4.28c-0.41,0-0.705-0.308-0.705-0.704v-7.773
	c0-0.397,0.282-0.718,0.73-0.718C114.294,28.847,114.576,29.167,114.576,29.564"/>
<path fill="#FFFFFF" d="M57.687,29.563v7.044h3.511v1.436h-4.28c-0.41,0-0.705-0.308-0.705-0.705v-7.774
	c0-0.396,0.282-0.717,0.73-0.717C57.405,28.846,57.687,29.166,57.687,29.563"/>
<path fill="#FFFFFF" d="M25.009,36.748c-0.8,0.802-1.734,1.328-3.186,1.423c-2.624,0.171-4.713-1.745-4.882-4.33l-0.001-0.024
	c-0.168-2.561,1.611-4.781,4.337-4.959c1.389-0.092,2.329,0.26,3.153,0.813c0.175,0.117,0.331,0.327,0.35,0.609
	c0.028,0.438-0.297,0.795-0.734,0.823c-0.219,0.015-0.378-0.054-0.486-0.123c-0.65-0.461-1.339-0.726-2.2-0.67
	c-1.711,0.112-2.878,1.608-2.763,3.37l0.002,0.026c0.115,1.761,1.456,3.107,3.179,2.994c0.951-0.063,1.574-0.412,2.194-1.008
	L25.009,36.748z"/>
<path fill="#FFFFFF" d="M35.834,38.042l-0.048-8.422c0-0.435,0.332-0.78,0.767-0.78h0.064c0.371,0,0.6,0.191,0.818,0.474
	l4.649,6.196l-0.032-5.906c0-0.422,0.345-0.767,0.767-0.767c0.434,0,0.78,0.345,0.78,0.767l0.032,7.733
	c0,0.435-0.346,0.793-0.793,0.793h-0.166c-0.383,0-0.6-0.191-0.818-0.46l-4.522-5.922l0.049,6.294H35.834z"/>
<path fill="#FFFFFF" d="M150.785,38.042l-0.049-8.422c0-0.435,0.332-0.78,0.768-0.78h0.063c0.371,0,0.601,0.191,0.818,0.474
	l4.649,6.196l-0.033-5.906c0-0.422,0.346-0.767,0.768-0.767c0.434,0,0.78,0.345,0.78,0.767l0.032,7.733
	c0,0.435-0.347,0.793-0.793,0.793h-0.166c-0.383,0-0.601-0.191-0.818-0.46l-4.521-5.922l0.049,6.294H150.785z"/>
<path fill="#FFFFFF" d="M45.094,33.56v-0.025c0-2.551,1.968-4.688,4.752-4.688c2.783,0,4.725,2.11,4.725,4.661v0.026
	c0,2.55-1.968,4.687-4.752,4.687C47.036,38.221,45.094,36.11,45.094,33.56 M52.901,33.56v-0.025c0-1.761-1.282-3.224-3.082-3.224
	c-1.799,0-3.054,1.436-3.054,3.197v0.026c0,1.761,1.281,3.21,3.081,3.21C51.646,36.744,52.901,35.32,52.901,33.56"/>
<path fill="#FFFFFF" d="M61.914,33.543v-0.024c0-2.542,1.961-4.672,4.735-4.672s4.709,2.103,4.709,4.646v0.026
	c0,2.541-1.961,4.67-4.734,4.67C63.849,38.188,61.914,36.086,61.914,33.543 M69.694,33.543v-0.024c0-1.755-1.277-3.213-3.07-3.213
	c-1.794,0-3.045,1.432-3.045,3.187v0.026c0,1.754,1.277,3.198,3.07,3.198C68.443,36.717,69.694,35.299,69.694,33.543"/>
<path fill="#FFFFFF" d="M102.108,33.543v-0.024c0-2.542,1.961-4.672,4.735-4.672c2.773,0,4.709,2.103,4.709,4.646v0.026
	c0,2.541-1.961,4.67-4.734,4.67C104.043,38.188,102.108,36.086,102.108,33.543 M109.889,33.543v-0.024
	c0-1.755-1.277-3.213-3.07-3.213c-1.794,0-3.045,1.432-3.045,3.187v0.026c0,1.754,1.277,3.198,3.07,3.198
	S109.889,35.299,109.889,33.543"/>
<path fill="#FFFFFF" d="M139.916,33.543v-0.024c0-2.542,1.961-4.672,4.735-4.672s4.709,2.103,4.709,4.646v0.026
	c0,2.541-1.961,4.67-4.733,4.67C141.852,38.188,139.916,36.086,139.916,33.543 M147.697,33.543v-0.024
	c0-1.755-1.277-3.213-3.07-3.213c-1.795,0-3.045,1.432-3.045,3.187v0.026c0,1.754,1.276,3.198,3.069,3.198
	C146.445,36.717,147.697,35.299,147.697,33.543"/>
<path fill="#FFFFFF" d="M77.593,32.988h2.516c0.452,0,0.799,0.349,0.799,0.801v2.413c0,0.452-0.18,0.772-0.554,1.006
	c-0.774,0.516-1.858,0.979-3.213,0.979c-2.826,0-4.684-2.012-4.684-4.645v-0.025c0-2.529,1.936-4.671,4.658-4.671
	c1.355,0,2.258,0.323,3.084,0.917c0.155,0.116,0.323,0.335,0.323,0.645c0,0.427-0.349,0.787-0.787,0.787
	c-0.207,0-0.362-0.09-0.491-0.181c-0.58-0.425-1.213-0.709-2.193-0.709c-1.665,0-2.929,1.457-2.929,3.187v0.025
	c0,1.858,1.225,3.227,3.071,3.227c0.852,0,1.626-0.272,2.18-0.686v-1.689h-1.78V32.988z"/>
<path fill="#FFFFFF" d="M86.389,34.127v3.915h-1.571v-3.877l-2.772-3.921c-0.102-0.154-0.179-0.333-0.179-0.551
	c0-0.422,0.345-0.754,0.792-0.754c0.346,0,0.575,0.191,0.767,0.473l2.184,3.283l2.184-3.283c0.192-0.281,0.422-0.473,0.768-0.473
	c0.447,0,0.793,0.332,0.793,0.754c0,0.218-0.077,0.396-0.18,0.551L86.389,34.127z"/>
<path fill="#FFFFFF" d="M119.064,34.215v-4.588c0-0.436,0.345-0.78,0.791-0.78c0.436,0,0.78,0.345,0.78,0.78v4.524
	c0,1.66,0.856,2.544,2.263,2.544c1.393,0,2.248-0.832,2.248-2.48v-4.588c0-0.436,0.347-0.78,0.793-0.78
	c0.435,0,0.781,0.345,0.781,0.78v4.511c0,2.672-1.51,4.013-3.848,4.013C120.546,38.15,119.064,36.81,119.064,34.215"/>
<path fill="#FFFFFF" d="M130.758,38.042v-7.584h-2.173c-0.409,0-0.728-0.333-0.728-0.729c0-0.396,0.318-0.729,0.728-0.729h5.942
	c0.397,0,0.717,0.333,0.717,0.729c0,0.396-0.319,0.729-0.717,0.729h-2.185v7.584H130.758z"/>
<rect x="136.609" y="29" fill="#FFFFFF" width="1.574" height="9.042"/>
<path fill="#FFFFFF" d="M3.995,38.042v-7.584H1.821c-0.409,0-0.728-0.333-0.728-0.729C1.093,29.333,1.413,29,1.821,29h5.943
	c0.397,0,0.716,0.333,0.716,0.729c0,0.396-0.319,0.729-0.716,0.729H5.58v7.584H3.995z"/>
<path fill="#FFFFFF" d="M146.104,2.428c0.461-0.747,1.223-1.533,2.045-1.867c1.412-0.639,3.305-0.366,4.459,0.653
	c1.112,1.01,1.678,2.393,1.409,3.939c0.278-0.049,0.552-0.227,0.839-0.324c1.734-0.487,3.563,0.04,4.67,1.526
	c0.836,1.059,1.058,2.705,0.553,3.982c-0.246,0.645-0.67,1.226-1.221,1.718l0.057,0.056c1.611,0.08,3.191,1.33,3.681,2.861
	c0.531,1.548,0.063,3.202-1.069,4.33c-0.922,0.913-2.111,1.23-3.432,1.203h-23.977c-1.971,0.045-3.491-0.827-4.312-2.581
	c-0.642-1.505-0.321-3.424,0.88-4.57c0.754-0.793,1.7-1.115,2.727-1.278c-1.158-1.072-1.717-2.541-1.394-4.118
	c0.235-1.278,1.322-2.569,2.574-3.016c1.101-0.438,2.59-0.361,3.601,0.232l0.037-0.042c-0.303-1.737,0.465-3.308,1.904-4.269
	c1.287-0.868,3.344-0.846,4.602,0.08C145.301,1.288,145.766,1.885,146.104,2.428"/>
<path fill="#6B5BA2" d="M152.814,3.116c-0.174-0.415-0.475-0.817-0.897-1.195c-0.963-0.821-2.502-0.972-3.581-0.347
	c-1.005,0.535-1.641,1.576-1.665,2.715l1.356,0.012l0.026,0.003l0.022,0.015l0.084,0.036c0.082,0.031,0.193,0.073,0.222,0.21
	l0.011,0.053l-0.043,0.036c-0.117,0.089-0.248,0.175-0.389,0.266c-0.538,0.352-1.092,0.714-1.002,1.388l1.462,9.226l4.067-9.158
	l0.002-0.003l0.002-0.004C152.973,5.533,153.343,4.182,152.814,3.116"/>
<path fill="#E01241" d="M143.613,1.464c-1.174-0.492-2.592-0.229-3.45,0.645c-0.892,0.877-1.211,2.136-0.839,3.282
	c0.057,0.132,4.251,9.489,4.246,9.487l0.324,0.649c0.236-1.514,1.664-10.657,1.66-10.657c0.109-0.692-0.023-1.373-0.406-2.074
	C144.805,2.223,144.241,1.737,143.613,1.464"/>
<path fill="#0F80C3" d="M158.969,7.377c-0.432-0.865-1.326-1.513-2.337-1.697c-1.396-0.189-2.685,0.437-3.351,1.63l-4.67,10.533
	l-0.017,0.052c1.282-0.881,8.614-5.915,8.612-5.912c0.142-0.104,0.291-0.206,0.434-0.306c0.421-0.286,0.855-0.578,1.141-1.042
	C159.426,9.723,159.51,8.292,158.969,7.377"/>
<path fill-rule="evenodd" clip-rule="evenodd" fill="#EA661A" d="M134.971,5.868c-0.908,0.338-1.683,1.2-1.935,2.135
	c-0.325,1.229,0.06,2.453,1.035,3.271l9.647,6.651l-4.767-10.614C138.17,5.918,136.49,5.31,134.971,5.868"/>
<path fill="#009640" d="M161.524,15.013c-0.325-0.724-0.998-1.389-1.673-1.653c-0.898-0.429-2.159-0.346-3.001,0.195l-8.519,5.927
	c1.67,0,10.164-0.005,10.168-0.005c1.035,0.025,1.944-0.402,2.631-1.24C161.817,17.378,161.986,15.992,161.524,15.013"/>
<path fill="#F9B510" d="M132.461,13.438c-0.652,0.258-1.316,0.917-1.63,1.614c-0.449,0.95-0.286,2.296,0.379,3.13
	c0.671,0.814,1.555,1.231,2.567,1.205l9.879,0.009c-1.807-1.259-8.283-5.767-8.279-5.764
	C134.556,13.106,133.334,13.024,132.461,13.438"/>
</svg>
