<?xml version="1.0" encoding="utf-8"?>
<svg version="1.1" xmlns="http://www.w3.org/2000/svg" xmlns:xlink="http://www.w3.org/1999/xlink" x="0px" y="0px"
	 width="476.22px" height="19.87px" viewBox="0 0 476.22 19.87" enable-background="new 0 0 476.22 19.87" xml:space="preserve">
<path fill="#FFFFFF" d="M142.653,2.165c0.451-0.732,1.199-1.502,2.003-1.828c1.383-0.626,3.237-0.359,4.367,0.639
	c1.089,0.99,1.643,2.344,1.38,3.858c0.272-0.047,0.541-0.222,0.822-0.317c1.698-0.477,3.489,0.04,4.573,1.495
	c0.819,1.037,1.036,2.649,0.541,3.899c-0.241,0.632-0.655,1.201-1.195,1.683l0.055,0.055c1.579,0.078,3.125,1.303,3.605,2.801
	c0.519,1.518,0.061,3.137-1.047,4.242c-0.904,0.893-2.069,1.205-3.361,1.178h-23.481c-1.929,0.043-3.419-0.811-4.222-2.527
	c-0.629-1.475-0.315-3.354,0.862-4.477c0.737-0.777,1.665-1.092,2.669-1.252c-1.134-1.049-1.681-2.489-1.363-4.032
	c0.229-1.252,1.294-2.517,2.52-2.954c1.078-0.43,2.537-0.354,3.527,0.227l0.036-0.041c-0.297-1.701,0.455-3.24,1.865-4.18
	c1.26-0.85,3.273-0.828,4.505,0.079C141.868,1.047,142.323,1.633,142.653,2.165"/>
<path fill="#6B5BA2" d="M149.226,2.838c-0.17-0.406-0.465-0.8-0.88-1.17c-0.942-0.805-2.45-0.952-3.506-0.34
	c-0.985,0.524-1.607,1.544-1.63,2.659l1.328,0.011l0.025,0.004l0.023,0.014l0.081,0.035c0.081,0.031,0.191,0.072,0.218,0.206
	l0.009,0.052l-0.041,0.035c-0.115,0.088-0.243,0.171-0.38,0.26c-0.527,0.346-1.07,0.7-0.982,1.359l1.432,9.035l3.983-8.969
	l0.001-0.002l0.002-0.004C149.381,5.206,149.743,3.882,149.226,2.838"/>
<path fill="#E01241" d="M140.215,1.221c-1.149-0.482-2.537-0.225-3.378,0.632c-0.873,0.858-1.186,2.091-0.823,3.214
	c0.057,0.129,4.164,9.292,4.159,9.291l0.318,0.635c0.232-1.48,1.629-10.436,1.625-10.436c0.108-0.678-0.023-1.345-0.397-2.032
	C141.381,1.965,140.83,1.488,140.215,1.221"/>
<path fill="#0F80C3" d="M155.252,7.012c-0.422-0.847-1.298-1.481-2.289-1.661c-1.366-0.186-2.628,0.427-3.281,1.595l-4.573,10.316
	l-0.016,0.051c1.256-0.863,8.435-5.793,8.434-5.791c0.139-0.102,0.285-0.201,0.424-0.299c0.412-0.28,0.838-0.566,1.118-1.021
	C155.701,9.308,155.782,7.907,155.252,7.012"/>
<path fill-rule="evenodd" clip-rule="evenodd" fill="#EA661A" d="M131.75,5.534c-0.888,0.331-1.647,1.175-1.894,2.091
	c-0.318,1.203,0.058,2.402,1.014,3.204l9.447,6.513l-4.667-10.395C134.885,5.583,133.239,4.987,131.75,5.534"/>
<path fill="#009640" d="M157.755,14.49c-0.319-0.709-0.977-1.361-1.638-1.619c-0.88-0.42-2.115-0.338-2.939,0.191l-8.343,5.805
	c1.635,0,9.955-0.006,9.955-0.006c1.017,0.023,1.907-0.395,2.58-1.215C158.042,16.805,158.208,15.449,157.755,14.49"/>
<path fill="#F9B510" d="M129.293,12.947c-0.639,0.252-1.289,0.898-1.596,1.58c-0.44,0.93-0.28,2.248,0.371,3.066
	c0.657,0.797,1.523,1.203,2.514,1.18l9.674,0.008c-1.768-1.232-8.111-5.646-8.108-5.645
	C131.344,12.621,130.148,12.541,129.293,12.947"/>
<path fill="#FFFFFF" d="M27.458,1.042c-4.964,0-9.001,4.038-9.001,9.002s4.037,9.005,9.001,9.005c4.964,0,9.001-4.041,9.001-9.005
	S32.421,1.042,27.458,1.042 M27.458,17.275c-3.987,0-7.232-3.246-7.232-7.231c0-3.984,3.245-7.228,7.232-7.228
	c3.987,0,7.231,3.244,7.231,7.228C34.688,14.029,31.444,17.275,27.458,17.275"/>
<path fill="#FFFFFF" d="M105.076,10.159c-0.484-0.254-3.42-1.767-3.843-1.986c-1.541-0.785-2.088-1.483-2.088-2.663
	c0-1.638,1.345-2.696,3.431-2.696c1.225,0,2.41,0.538,3.103,0.929c0.127,0.069,0.275,0.108,0.43,0.108
	c0.488,0,0.885-0.397,0.885-0.885c0-0.327-0.178-0.613-0.443-0.767c-0.875-0.487-2.367-1.157-3.975-1.157
	c-3.063,0-5.203,1.838-5.203,4.468c0,2.362,1.552,3.477,3.072,4.253c0.425,0.216,3.396,1.749,3.842,1.983
	c1.174,0.615,1.822,1.535,1.822,2.596c0,1.424-1.203,2.934-3.433,2.934c-2.168,0-3.852-1.453-4.318-1.9l-0.137-0.133l-1.311,1.193
	l0.155,0.152c0.581,0.578,2.707,2.461,5.611,2.461c3.256,0,5.203-2.395,5.203-4.707C107.879,12.615,106.858,11.09,105.076,10.159"/>
<path fill="#FFFFFF" d="M9.001,2.815c1.933,0,3.749,0.751,5.113,2.116c0.324,0.322,0.933,0.322,1.253,0
	c0.169-0.166,0.259-0.388,0.259-0.626c0-0.235-0.09-0.46-0.259-0.625l-0.108-0.112c-1.687-1.629-3.91-2.527-6.258-2.527
	C4.038,1.042,0,5.08,0,10.043c0,4.964,4.038,9.005,9.001,9.005c2.62,0,4.98-1.125,6.625-2.918l-1.253-1.254
	c-1.324,1.471-3.241,2.398-5.372,2.398c-3.987,0-7.231-3.246-7.231-7.232C1.77,6.059,5.014,2.815,9.001,2.815"/>
<path fill="#FFFFFF" d="M70.025,2.815c1.931,0,3.749,0.751,5.112,2.116c0.325,0.322,0.934,0.322,1.254,0
	c0.168-0.166,0.26-0.388,0.26-0.626c0-0.235-0.092-0.46-0.26-0.625l-0.109-0.112c-1.687-1.629-3.909-2.527-6.257-2.527
	c-4.964,0-9.002,4.038-9.002,9.002c0,4.964,4.038,9.005,9.002,9.005c2.618,0,4.979-1.125,6.625-2.918l-1.254-1.254
	c-1.323,1.471-3.241,2.398-5.371,2.398c-3.988,0-7.232-3.246-7.232-7.232C62.793,6.059,66.037,2.815,70.025,2.815"/>
<path fill="#FFFFFF" d="M54.777,1.042c-0.333,0-0.594,0.214-0.738,0.492c-0.145,0.276-5.297,13.019-5.297,13.019
	S43.59,1.81,43.445,1.534C43.3,1.256,43.04,1.042,42.707,1.042c-0.388,0-0.681,0.284-0.784,0.646
	c-0.102,0.361-3.009,16.402-3.009,16.402c-0.01,0.051-0.016,0.104-0.016,0.158c0,0.443,0.36,0.801,0.799,0.801
	c0.389,0,0.714-0.279,0.785-0.646l2.517-13.722c0,0,4.856,11.999,4.999,12.286c0.143,0.285,0.406,0.506,0.744,0.506
	c0.337,0,0.601-0.221,0.743-0.506c0.143-0.287,5-12.286,5-12.286l2.617,14.269h1.623c0,0-3.062-16.9-3.164-17.261
	C55.457,1.326,55.165,1.042,54.777,1.042"/>
<path fill="#FFFFFF" d="M86.782,1.041c-0.337,0-0.597,0.219-0.743,0.505c-0.146,0.286-6.667,16.391-6.667,16.391
	c-0.04,0.098-0.062,0.201-0.062,0.313c0,0.441,0.358,0.799,0.799,0.799c0.336,0,0.625-0.211,0.742-0.508l2.533-6.227h6.799
	l2.7,6.635h1.724c0,0-6.939-17.117-7.082-17.403C87.382,1.26,87.12,1.041,86.782,1.041 M84.106,10.541l2.676-6.583l2.679,6.583
	H84.106z"/>
<path fill="#FFFFFF" d="M121.826,2.023c0-0.49-0.399-0.886-0.887-0.886h-10.024c-0.488,0-0.884,0.396-0.884,0.886
	c0,0.488,0.396,0.884,0.884,0.884h4.203v16.042h1.622V2.908h4.199C121.427,2.908,121.826,2.511,121.826,2.023"/>
<path fill="#FFFFFF" d="M466.457,14.533c0.25,0.275,1.525,1.852,3.955,1.852c1.678,0,2.779-1.025,2.779-2.227
	c0-1.102-0.676-1.705-2.004-2.33c-0.398-0.199-1.953-0.952-2.328-1.127c-2.104-1.001-3.805-2.278-3.805-4.831
	c0-2.78,2.352-4.809,5.533-4.809c2.004,0,3.205,0.528,3.98,0.877c0.477,0.225,1.027,0.651,1.027,1.426
	c0,0.902-0.703,1.353-1.326,1.353c-0.477,0-1.004-0.251-1.203-0.351c-0.451-0.2-1.277-0.55-2.354-0.55
	c-1.877,0-2.629,1.026-2.629,1.952c0,0.903,0.475,1.553,1.627,2.103c0,0,2.129,1.028,2.904,1.378
	c2.828,1.377,3.605,2.929,3.605,4.833c0,2.93-2.504,5.059-6.135,5.059c-3.705,0-5.383-2.18-5.756-2.682L466.457,14.533z"/>
<path fill="#FFFFFF" d="M341.068,14.355c0.246,0.273,1.508,1.83,3.904,1.83c1.656,0,2.744-1.014,2.744-2.199
	c0-1.088-0.668-1.682-1.979-2.299c-0.393-0.197-1.926-0.938-2.297-1.111c-2.076-0.989-3.756-2.249-3.756-4.769
	c0-2.743,2.322-4.746,5.461-4.746c1.979,0,3.162,0.521,3.928,0.865c0.471,0.222,1.016,0.643,1.016,1.408
	c0,0.89-0.693,1.335-1.311,1.335c-0.471,0-0.988-0.247-1.186-0.346c-0.447-0.198-1.262-0.543-2.324-0.543
	c-1.852,0-2.594,1.013-2.594,1.927c0,0.891,0.469,1.532,1.605,2.075c0,0,2.102,1.014,2.865,1.36c2.793,1.359,3.561,2.891,3.561,4.77
	c0,2.891-2.473,4.992-6.055,4.992c-3.658,0-5.313-2.15-5.684-2.646L341.068,14.355z"/>
<path fill="#FFFFFF" d="M376.832,2.445v13.577h6.771v2.768h-8.252c-0.791,0-1.361-0.592-1.361-1.357V2.445
	c0-0.765,0.543-1.383,1.408-1.383C376.289,1.062,376.832,1.68,376.832,2.445"/>
<path fill="#FFFFFF" d="M446.645,18.791l-0.094-16.239c0-0.839,0.641-1.503,1.479-1.503h0.125c0.713,0,1.156,0.368,1.576,0.91
	l8.963,11.949l-0.061-11.387c0-0.813,0.664-1.479,1.479-1.479c0.836,0,1.502,0.666,1.502,1.479l0.064,14.911
	c0,0.836-0.668,1.527-1.529,1.527h-0.322c-0.736,0-1.156-0.369-1.576-0.887l-8.717-11.416l0.092,12.135H446.645z"/>
<path fill="#FFFFFF" d="M352.793,10.116v-0.049c0-4.901,3.783-9.006,9.131-9.006s9.078,4.055,9.078,8.956v0.05
	c0,4.899-3.779,9.005-9.127,9.005C356.525,19.072,352.793,15.018,352.793,10.116 M367.795,10.116v-0.049
	c0-3.383-2.463-6.194-5.92-6.194c-3.459,0-5.869,2.76-5.869,6.144v0.05c0,3.382,2.461,6.169,5.918,6.169
	C365.383,16.236,367.795,13.5,367.795,10.116"/>
<path fill="#FFFFFF" d="M425.689,10.116v-0.049c0-4.901,3.781-9.006,9.129-9.006c5.35,0,9.08,4.055,9.08,8.956v0.05
	c0,4.899-3.779,9.005-9.129,9.005C429.422,19.072,425.689,15.018,425.689,10.116 M440.689,10.116v-0.049
	c0-3.383-2.463-6.194-5.92-6.194s-5.869,2.76-5.869,6.144v0.05c0,3.382,2.461,6.169,5.918,6.169
	C438.277,16.236,440.689,13.5,440.689,10.116"/>
<path fill="#FFFFFF" d="M385.486,11.41V2.564c0-0.839,0.664-1.503,1.527-1.503c0.838,0,1.502,0.664,1.502,1.503v8.725
	c0,3.201,1.65,4.902,4.361,4.902c2.686,0,4.338-1.604,4.338-4.781V2.564c0-0.839,0.666-1.503,1.527-1.503
	c0.838,0,1.504,0.664,1.504,1.503v8.697c0,5.152-2.908,7.738-7.418,7.738C388.344,19,385.486,16.414,385.486,11.41"/>
<path fill="#FFFFFF" d="M408.031,18.791V4.167h-4.188c-0.789,0-1.406-0.64-1.406-1.405c0-0.764,0.617-1.405,1.406-1.405h11.457
	c0.766,0,1.381,0.641,1.381,1.405c0,0.765-0.615,1.405-1.381,1.405h-4.213v14.624H408.031z"/>
<rect x="419.316" y="1.357" fill="#FFFFFF" width="3.031" height="17.434"/>
<path fill="#FFFFFF" d="M210.305,2.424v16.393h2.839v-7.555h8.418v6.52c0,0.74,0.544,1.359,1.433,1.359
	c0.864,0,1.406-0.619,1.406-1.359V2.424c0-0.765-0.542-1.382-1.406-1.382c-0.889,0-1.433,0.617-1.433,1.382v6.072h-8.418V2.424
	c0-0.765-0.544-1.382-1.408-1.382C210.849,1.042,210.305,1.659,210.305,2.424"/>
<path fill="#FFFFFF" d="M180.809,4.139v3.914h6.493c1.012,0,1.555,0.594,1.555,1.384c0,0.789-0.543,1.382-1.555,1.382h-6.493v5.207
	h8.641v2.766h-10.122c-0.79,0-1.358-0.592-1.358-1.357V2.732c0-0.79,0.568-1.358,1.358-1.358h8.714c0.938,0,1.505,0.592,1.505,1.382
	c0,0.79-0.567,1.383-1.505,1.383H180.809z"/>
<path fill="#FFFFFF" d="M270.4,2.458v13.565h6.764v2.768h-8.244c-0.789,0-1.357-0.594-1.357-1.359V2.458
	c0-0.765,0.541-1.382,1.406-1.382C269.857,1.076,270.4,1.693,270.4,2.458"/>
<path fill="#FFFFFF" d="M207.458,16.297c-1.541,1.545-3.34,2.559-6.138,2.742c-5.053,0.33-9.076-3.363-9.402-8.341l-0.003-0.049
	c-0.323-4.93,3.104-9.209,8.355-9.552c2.675-0.175,4.485,0.502,6.072,1.568c0.338,0.226,0.639,0.631,0.675,1.174
	c0.055,0.843-0.573,1.53-1.414,1.585c-0.422,0.028-0.728-0.101-0.936-0.235c-1.253-0.89-2.579-1.399-4.238-1.291
	c-3.295,0.216-5.543,3.098-5.321,6.492l0.003,0.05c0.222,3.392,2.804,5.983,6.123,5.767c1.833-0.119,3.033-0.793,4.226-1.943
	L207.458,16.297z"/>
<path fill="#FFFFFF" d="M228.308,18.791l-0.093-16.224c0-0.838,0.64-1.502,1.478-1.502h0.123c0.714,0,1.156,0.368,1.576,0.91
	l8.954,11.937l-0.061-11.375c0-0.813,0.662-1.479,1.477-1.479c0.836,0,1.502,0.666,1.502,1.479l0.063,14.897
	c0,0.836-0.666,1.525-1.527,1.525h-0.32c-0.738,0-1.156-0.369-1.576-0.885l-8.709-11.407l0.093,12.124H228.308z"/>
<path fill="#FFFFFF" d="M246.145,10.156v-0.049c0-4.913,3.791-9.028,9.152-9.028s9.102,4.064,9.102,8.978v0.05
	c0,4.913-3.789,9.028-9.152,9.028C249.885,19.135,246.145,15.068,246.145,10.156 M261.184,10.156v-0.049
	c0-3.392-2.471-6.209-5.938-6.209c-3.465,0-5.883,2.766-5.883,6.159v0.05c0,3.391,2.469,6.184,5.934,6.184
	C258.766,16.291,261.184,13.549,261.184,10.156"/>
<path fill="#FFFFFF" d="M278.543,10.125v-0.049c0-4.896,3.779-8.998,9.121-8.998s9.07,4.051,9.07,8.948v0.05
	c0,4.895-3.775,8.997-9.119,8.997S278.543,15.021,278.543,10.125 M293.529,10.125v-0.049c0-3.38-2.459-6.188-5.914-6.188
	s-5.865,2.757-5.865,6.138v0.05c0,3.379,2.461,6.163,5.914,6.163C291.119,16.238,293.529,13.506,293.529,10.125"/>
<path fill="#FFFFFF" d="M308.744,9.057h4.846c0.871,0,1.541,0.67,1.541,1.54v4.647c0,0.871-0.348,1.49-1.068,1.939
	c-1.49,0.994-3.578,1.889-6.188,1.889c-5.445,0-9.021-3.877-9.021-8.947v-0.049c0-4.872,3.727-8.998,8.971-8.998
	c2.609,0,4.35,0.622,5.939,1.766c0.299,0.224,0.621,0.646,0.621,1.242c0,0.821-0.672,1.516-1.514,1.516
	c-0.398,0-0.697-0.174-0.945-0.348c-1.119-0.819-2.338-1.366-4.225-1.366c-3.207,0-5.643,2.807-5.643,6.138v0.05
	c0,3.579,2.361,6.213,5.914,6.213c1.643,0,3.133-0.523,4.201-1.318v-3.256h-3.43V9.057z"/>
<path fill="#FFFFFF" d="M325.688,11.248v7.543h-3.025v-7.469l-5.342-7.554c-0.195-0.296-0.344-0.642-0.344-1.06
	c0-0.812,0.664-1.451,1.525-1.451c0.666,0,1.107,0.368,1.479,0.909l4.205,6.325l4.207-6.325c0.371-0.541,0.813-0.909,1.479-0.909
	c0.861,0,1.525,0.639,1.525,1.451c0,0.418-0.148,0.764-0.344,1.06L325.688,11.248z"/>
<path fill="#FFFFFF" d="M166.978,18.791V4.181h-4.185c-0.788,0-1.404-0.64-1.404-1.404s0.616-1.403,1.404-1.403h11.447
	c0.764,0,1.38,0.639,1.38,1.403s-0.616,1.404-1.38,1.404h-4.209v14.61H166.978z"/>
</svg>
